<svg xmlns="http://www.w3.org/2000/svg" viewBox="0 0 500 500"><switch><g><path fill="#FEFEFE" d="M167.6 198.8v-46c0-1.5.3-1.8 1.8-1.8h164.2c1.5 0 1.8.3 1.8 1.8v189.1c0 1.5-.3 1.8-1.8 1.8H169.4c-1.5 0-1.8-.3-1.8-1.8.1-15.7 0-31.3 0-47 .2-.2.4-.3.7-.3 3.9 1.5 7.3 4 10.8 6 23 13.5 46 27 69 40.6 1.7 1 3 .9 4.7 0 23.9-13.5 47.8-26.9 71.7-40.4 2.3-1.3 4.6-2.6 6.9-3.8 1.6-.9 2.3-2 2.2-3.8-.1-4.9 0-9.8 0-14.7 0-24.8 0-49.6.1-74.4 0-2.7-.9-4.3-3.3-5.6-21.5-12.3-43-24.8-64.5-37.2-4.4-2.5-8.8-5.1-13.2-7.7-1.7-1-3.1-.9-4.7 0-9.8 5.7-19.7 11.3-29.5 16.9-16.7 9.5-33.3 19.2-50.1 28.5-.3 0-.6 0-.8-.2z"/><path fill="#BCA17D" d="M168.1 294.8c-.2 0-.4.1-.5.1v-96.1c.1-.2.3-.2.4-.1 1 .9.9 2.1.9 3.3v89.7c0 1.1.1 2.2-.8 3.1z"/><path fill="none" stroke="#A68253" stroke-width="2" stroke-miterlimit="10" d="M168.1 294.8v-92.5c0-1.2 0-2.4-.1-3.5 9.5-5.5 19-11 28.6-16.5 17.2-9.9 34.5-19.7 51.7-29.7 1.5-.9 2.6-.8 4.1 0 26.5 15.4 53 30.7 79.6 45.9 1.8 1 2.4 2.1 2.4 4.2-.1 30.2-.1 60.5 0 90.7 0 2-.6 3-2.3 3.9-26.4 14.7-52.7 29.5-79 44.4-2 1.1-3.4 1.2-5.4 0-25.6-15.2-51.3-30.2-77-45.3-.8-.5-1.7-1.1-2.6-1.6zm166-94.6l-91.5 49"/></g></switch></svg>